<mxfile host="app.diagrams.net" modified="2023-09-25T03:59:01.739Z" agent="Mozilla/5.0 (Windows NT 10.0; Win64; x64) AppleWebKit/537.36 (KHTML, like Gecko) Chrome/116.0.0.0 Safari/537.36" etag="94jxyGd55AdizqiEVNeJ" version="21.7.4" type="github">
  <diagram id="C5RBs43oDa-KdzZeNtuy" name="Page-1">
    <mxGraphModel dx="1687" dy="936" grid="1" gridSize="10" guides="1" tooltips="1" connect="1" arrows="1" fold="1" page="1" pageScale="1" pageWidth="1920" pageHeight="1200" math="0" shadow="0">
      <root>
        <mxCell id="WIyWlLk6GJQsqaUBKTNV-0" />
        <mxCell id="WIyWlLk6GJQsqaUBKTNV-1" parent="WIyWlLk6GJQsqaUBKTNV-0" />
        <mxCell id="95yOMGn-9sYuLkJ2l636-78" value="" style="edgeStyle=orthogonalEdgeStyle;rounded=0;orthogonalLoop=1;jettySize=auto;html=1;" edge="1" parent="WIyWlLk6GJQsqaUBKTNV-1" source="95yOMGn-9sYuLkJ2l636-0" target="95yOMGn-9sYuLkJ2l636-76">
          <mxGeometry relative="1" as="geometry" />
        </mxCell>
        <mxCell id="95yOMGn-9sYuLkJ2l636-0" value="InputListener: M" style="swimlane;fontStyle=2;align=center;verticalAlign=top;childLayout=stackLayout;horizontal=1;startSize=26;horizontalStack=0;resizeParent=1;resizeLast=0;collapsible=1;marginBottom=0;rounded=0;shadow=0;strokeWidth=1;" vertex="1" parent="WIyWlLk6GJQsqaUBKTNV-1">
          <mxGeometry x="90" y="270" width="160" height="140" as="geometry">
            <mxRectangle x="230" y="140" width="160" height="26" as="alternateBounds" />
          </mxGeometry>
        </mxCell>
        <mxCell id="95yOMGn-9sYuLkJ2l636-1" value="Player&#xa;PlayerInvoker&#xa;Game&#xa;CheckInputs()" style="text;align=center;verticalAlign=top;spacingLeft=4;spacingRight=4;overflow=hidden;rotatable=0;points=[[0,0.5],[1,0.5]];portConstraint=eastwest;" vertex="1" parent="95yOMGn-9sYuLkJ2l636-0">
          <mxGeometry y="26" width="160" height="114" as="geometry" />
        </mxCell>
        <mxCell id="95yOMGn-9sYuLkJ2l636-2" value="" style="edgeStyle=orthogonalEdgeStyle;rounded=0;orthogonalLoop=1;jettySize=auto;html=1;exitX=1.031;exitY=0.133;exitDx=0;exitDy=0;exitPerimeter=0;entryX=0.007;entryY=0.122;entryDx=0;entryDy=0;entryPerimeter=0;" edge="1" parent="WIyWlLk6GJQsqaUBKTNV-1" source="95yOMGn-9sYuLkJ2l636-3" target="95yOMGn-9sYuLkJ2l636-10">
          <mxGeometry relative="1" as="geometry" />
        </mxCell>
        <mxCell id="95yOMGn-9sYuLkJ2l636-3" value="PlayerInvoker: M" style="swimlane;fontStyle=0;align=center;verticalAlign=top;childLayout=stackLayout;horizontal=1;startSize=26;horizontalStack=0;resizeParent=1;resizeLast=0;collapsible=1;marginBottom=0;rounded=0;shadow=0;strokeWidth=1;" vertex="1" parent="WIyWlLk6GJQsqaUBKTNV-1">
          <mxGeometry x="360" y="294.5" width="160" height="90" as="geometry">
            <mxRectangle x="550" y="140" width="160" height="26" as="alternateBounds" />
          </mxGeometry>
        </mxCell>
        <mxCell id="95yOMGn-9sYuLkJ2l636-4" value="IMovableÂ &#xa;Shooting" style="text;align=center;verticalAlign=top;spacingLeft=4;spacingRight=4;overflow=hidden;rotatable=0;points=[[0,0.5],[1,0.5]];portConstraint=eastwest;" vertex="1" parent="95yOMGn-9sYuLkJ2l636-3">
          <mxGeometry y="26" width="160" height="54" as="geometry" />
        </mxCell>
        <mxCell id="95yOMGn-9sYuLkJ2l636-5" value="" style="endArrow=open;shadow=0;strokeWidth=1;rounded=0;endFill=1;edgeStyle=elbowEdgeStyle;elbow=vertical;" edge="1" parent="WIyWlLk6GJQsqaUBKTNV-1" source="95yOMGn-9sYuLkJ2l636-0" target="95yOMGn-9sYuLkJ2l636-3">
          <mxGeometry x="0.5" y="41" relative="1" as="geometry">
            <mxPoint x="380" y="332" as="sourcePoint" />
            <mxPoint x="540" y="332" as="targetPoint" />
            <mxPoint x="-40" y="32" as="offset" />
            <Array as="points">
              <mxPoint x="305" y="310" />
            </Array>
          </mxGeometry>
        </mxCell>
        <mxCell id="95yOMGn-9sYuLkJ2l636-6" value="" style="resizable=0;align=left;verticalAlign=bottom;labelBackgroundColor=none;fontSize=12;" connectable="0" vertex="1" parent="95yOMGn-9sYuLkJ2l636-5">
          <mxGeometry x="-1" relative="1" as="geometry">
            <mxPoint y="4" as="offset" />
          </mxGeometry>
        </mxCell>
        <mxCell id="95yOMGn-9sYuLkJ2l636-7" value="Player: M" style="swimlane;fontStyle=2;align=center;verticalAlign=top;childLayout=stackLayout;horizontal=1;startSize=26;horizontalStack=0;resizeParent=1;resizeLast=0;collapsible=1;marginBottom=0;rounded=0;shadow=0;strokeWidth=1;" vertex="1" parent="WIyWlLk6GJQsqaUBKTNV-1">
          <mxGeometry x="90" y="450" width="150" height="110" as="geometry">
            <mxRectangle x="230" y="140" width="160" height="26" as="alternateBounds" />
          </mxGeometry>
        </mxCell>
        <mxCell id="95yOMGn-9sYuLkJ2l636-8" style="edgeStyle=orthogonalEdgeStyle;rounded=0;orthogonalLoop=1;jettySize=auto;html=1;" edge="1" parent="95yOMGn-9sYuLkJ2l636-7" source="95yOMGn-9sYuLkJ2l636-9">
          <mxGeometry relative="1" as="geometry">
            <mxPoint x="360" y="-60" as="targetPoint" />
            <Array as="points">
              <mxPoint x="361" y="70" />
            </Array>
          </mxGeometry>
        </mxCell>
        <mxCell id="95yOMGn-9sYuLkJ2l636-9" value="variables (speed, hp, &#xa;bulletPrefab, firePoint)&#xa;&#xa;" style="text;align=center;verticalAlign=middle;spacingLeft=4;spacingRight=4;overflow=hidden;rotatable=0;points=[[0,0.5],[1,0.5]];portConstraint=eastwest;" vertex="1" parent="95yOMGn-9sYuLkJ2l636-7">
          <mxGeometry y="26" width="150" height="84" as="geometry" />
        </mxCell>
        <mxCell id="95yOMGn-9sYuLkJ2l636-23" style="edgeStyle=orthogonalEdgeStyle;rounded=0;orthogonalLoop=1;jettySize=auto;html=1;entryX=0.2;entryY=1;entryDx=0;entryDy=0;entryPerimeter=0;" edge="1" parent="WIyWlLk6GJQsqaUBKTNV-1" source="95yOMGn-9sYuLkJ2l636-10" target="95yOMGn-9sYuLkJ2l636-25">
          <mxGeometry relative="1" as="geometry">
            <mxPoint x="760" y="100" as="targetPoint" />
          </mxGeometry>
        </mxCell>
        <mxCell id="95yOMGn-9sYuLkJ2l636-10" value="PlayerMovement:Imovable" style="swimlane;fontStyle=0;align=center;verticalAlign=top;childLayout=stackLayout;horizontal=1;startSize=26;horizontalStack=0;resizeParent=1;resizeLast=0;collapsible=1;marginBottom=0;rounded=0;shadow=0;strokeWidth=1;" vertex="1" parent="WIyWlLk6GJQsqaUBKTNV-1">
          <mxGeometry x="630" y="204.5" width="140" height="70" as="geometry">
            <mxRectangle x="550" y="140" width="160" height="26" as="alternateBounds" />
          </mxGeometry>
        </mxCell>
        <mxCell id="95yOMGn-9sYuLkJ2l636-11" value="Move()&#xa;&#xa;" style="text;align=center;verticalAlign=top;spacingLeft=4;spacingRight=4;overflow=hidden;rotatable=0;points=[[0,0.5],[1,0.5]];portConstraint=eastwest;" vertex="1" parent="95yOMGn-9sYuLkJ2l636-10">
          <mxGeometry y="26" width="140" height="44" as="geometry" />
        </mxCell>
        <mxCell id="95yOMGn-9sYuLkJ2l636-37" style="edgeStyle=orthogonalEdgeStyle;rounded=0;orthogonalLoop=1;jettySize=auto;html=1;entryX=1.014;entryY=0.642;entryDx=0;entryDy=0;entryPerimeter=0;" edge="1" parent="WIyWlLk6GJQsqaUBKTNV-1" source="95yOMGn-9sYuLkJ2l636-13" target="95yOMGn-9sYuLkJ2l636-17">
          <mxGeometry relative="1" as="geometry">
            <Array as="points">
              <mxPoint x="680" y="657" />
            </Array>
          </mxGeometry>
        </mxCell>
        <mxCell id="95yOMGn-9sYuLkJ2l636-13" value="Shooting" style="swimlane;fontStyle=0;align=center;verticalAlign=top;childLayout=stackLayout;horizontal=1;startSize=26;horizontalStack=0;resizeParent=1;resizeLast=0;collapsible=1;marginBottom=0;rounded=0;shadow=0;strokeWidth=1;" vertex="1" parent="WIyWlLk6GJQsqaUBKTNV-1">
          <mxGeometry x="630" y="384.5" width="140" height="80" as="geometry">
            <mxRectangle x="550" y="140" width="160" height="26" as="alternateBounds" />
          </mxGeometry>
        </mxCell>
        <mxCell id="95yOMGn-9sYuLkJ2l636-14" value="Shoot()" style="text;align=center;verticalAlign=top;spacingLeft=4;spacingRight=4;overflow=hidden;rotatable=0;points=[[0,0.5],[1,0.5]];portConstraint=eastwest;" vertex="1" parent="95yOMGn-9sYuLkJ2l636-13">
          <mxGeometry y="26" width="140" height="54" as="geometry" />
        </mxCell>
        <mxCell id="95yOMGn-9sYuLkJ2l636-15" style="edgeStyle=orthogonalEdgeStyle;rounded=0;orthogonalLoop=1;jettySize=auto;html=1;exitX=1;exitY=0.5;exitDx=0;exitDy=0;entryX=0;entryY=0.5;entryDx=0;entryDy=0;" edge="1" parent="WIyWlLk6GJQsqaUBKTNV-1" source="95yOMGn-9sYuLkJ2l636-4" target="95yOMGn-9sYuLkJ2l636-14">
          <mxGeometry relative="1" as="geometry" />
        </mxCell>
        <mxCell id="95yOMGn-9sYuLkJ2l636-43" style="edgeStyle=orthogonalEdgeStyle;rounded=0;orthogonalLoop=1;jettySize=auto;html=1;" edge="1" parent="WIyWlLk6GJQsqaUBKTNV-1" source="95yOMGn-9sYuLkJ2l636-16">
          <mxGeometry relative="1" as="geometry">
            <mxPoint x="560" y="810" as="targetPoint" />
          </mxGeometry>
        </mxCell>
        <mxCell id="95yOMGn-9sYuLkJ2l636-16" value="PlayerBullet: M" style="swimlane;fontStyle=0;align=center;verticalAlign=top;childLayout=stackLayout;horizontal=1;startSize=26;horizontalStack=0;resizeParent=1;resizeLast=0;collapsible=1;marginBottom=0;rounded=0;shadow=0;strokeWidth=1;" vertex="1" parent="WIyWlLk6GJQsqaUBKTNV-1">
          <mxGeometry x="490" y="500" width="140" height="210" as="geometry">
            <mxRectangle x="550" y="140" width="160" height="26" as="alternateBounds" />
          </mxGeometry>
        </mxCell>
        <mxCell id="95yOMGn-9sYuLkJ2l636-33" style="edgeStyle=orthogonalEdgeStyle;rounded=0;orthogonalLoop=1;jettySize=auto;html=1;" edge="1" parent="95yOMGn-9sYuLkJ2l636-16" source="95yOMGn-9sYuLkJ2l636-17">
          <mxGeometry relative="1" as="geometry">
            <mxPoint x="-160" y="250" as="targetPoint" />
          </mxGeometry>
        </mxCell>
        <mxCell id="95yOMGn-9sYuLkJ2l636-17" value="speed;&#xa;damage;&#xa;RigidBody;&#xa;destroyTime;&#xa;Action Explosion;&#xa;&#xa;EnemyHit&#xa;&#xa;MoveForward()&#xa;OnTriggerCheck()&#xa;Ienumerator LifeTime()&#xa;" style="text;align=center;verticalAlign=top;spacingLeft=4;spacingRight=4;overflow=hidden;rotatable=0;points=[[0,0.5],[1,0.5]];portConstraint=eastwest;" vertex="1" parent="95yOMGn-9sYuLkJ2l636-16">
          <mxGeometry y="26" width="140" height="184" as="geometry" />
        </mxCell>
        <mxCell id="95yOMGn-9sYuLkJ2l636-24" value="IMovable" style="swimlane;fontStyle=0;align=center;verticalAlign=top;childLayout=stackLayout;horizontal=1;startSize=26;horizontalStack=0;resizeParent=1;resizeLast=0;collapsible=1;marginBottom=0;rounded=0;shadow=0;strokeWidth=1;" vertex="1" parent="WIyWlLk6GJQsqaUBKTNV-1">
          <mxGeometry x="730" y="20" width="140" height="70" as="geometry">
            <mxRectangle x="550" y="140" width="160" height="26" as="alternateBounds" />
          </mxGeometry>
        </mxCell>
        <mxCell id="95yOMGn-9sYuLkJ2l636-25" value="Move()&#xa;&#xa;" style="text;align=center;verticalAlign=top;spacingLeft=4;spacingRight=4;overflow=hidden;rotatable=0;points=[[0,0.5],[1,0.5]];portConstraint=eastwest;" vertex="1" parent="95yOMGn-9sYuLkJ2l636-24">
          <mxGeometry y="26" width="140" height="44" as="geometry" />
        </mxCell>
        <mxCell id="95yOMGn-9sYuLkJ2l636-29" style="edgeStyle=orthogonalEdgeStyle;rounded=0;orthogonalLoop=1;jettySize=auto;html=1;entryX=0.929;entryY=1;entryDx=0;entryDy=0;entryPerimeter=0;" edge="1" parent="WIyWlLk6GJQsqaUBKTNV-1" source="95yOMGn-9sYuLkJ2l636-26" target="95yOMGn-9sYuLkJ2l636-25">
          <mxGeometry relative="1" as="geometry" />
        </mxCell>
        <mxCell id="95yOMGn-9sYuLkJ2l636-26" value="ArmyMovement: Imovable" style="swimlane;fontStyle=0;align=center;verticalAlign=top;childLayout=stackLayout;horizontal=1;startSize=26;horizontalStack=0;resizeParent=1;resizeLast=0;collapsible=1;marginBottom=0;rounded=0;shadow=0;strokeWidth=1;" vertex="1" parent="WIyWlLk6GJQsqaUBKTNV-1">
          <mxGeometry x="860" y="204.5" width="140" height="75.5" as="geometry">
            <mxRectangle x="550" y="140" width="160" height="26" as="alternateBounds" />
          </mxGeometry>
        </mxCell>
        <mxCell id="95yOMGn-9sYuLkJ2l636-27" value="Move()&#xa;SetParent()&#xa;" style="text;align=center;verticalAlign=top;spacingLeft=4;spacingRight=4;overflow=hidden;rotatable=0;points=[[0,0.5],[1,0.5]];portConstraint=eastwest;" vertex="1" parent="95yOMGn-9sYuLkJ2l636-26">
          <mxGeometry y="26" width="140" height="34" as="geometry" />
        </mxCell>
        <mxCell id="95yOMGn-9sYuLkJ2l636-30" value="EnemyBullet: M" style="swimlane;fontStyle=0;align=center;verticalAlign=top;childLayout=stackLayout;horizontal=1;startSize=26;horizontalStack=0;resizeParent=1;resizeLast=0;collapsible=1;marginBottom=0;rounded=0;shadow=0;strokeWidth=1;" vertex="1" parent="WIyWlLk6GJQsqaUBKTNV-1">
          <mxGeometry x="770" y="500" width="140" height="220" as="geometry">
            <mxRectangle x="550" y="140" width="160" height="26" as="alternateBounds" />
          </mxGeometry>
        </mxCell>
        <mxCell id="95yOMGn-9sYuLkJ2l636-31" value="speed;&#xa;damage;&#xa;RigidBody;&#xa;destroyTime;&#xa;Renderer;&#xa;&#xa;&#xa;PlayerHit&#xa;&#xa;MoveForward()&#xa;OnTriggerCheck()&#xa;Ienumerator LifeTime()&#xa;" style="text;align=center;verticalAlign=top;spacingLeft=4;spacingRight=4;overflow=hidden;rotatable=0;points=[[0,0.5],[1,0.5]];portConstraint=eastwest;" vertex="1" parent="95yOMGn-9sYuLkJ2l636-30">
          <mxGeometry y="26" width="140" height="194" as="geometry" />
        </mxCell>
        <mxCell id="95yOMGn-9sYuLkJ2l636-34" value="BulletDestroyEffect:M" style="swimlane;fontStyle=2;align=center;verticalAlign=top;childLayout=stackLayout;horizontal=1;startSize=26;horizontalStack=0;resizeParent=1;resizeLast=0;collapsible=1;marginBottom=0;rounded=0;shadow=0;strokeWidth=1;" vertex="1" parent="WIyWlLk6GJQsqaUBKTNV-1">
          <mxGeometry x="260" y="750" width="150" height="110" as="geometry">
            <mxRectangle x="230" y="140" width="160" height="26" as="alternateBounds" />
          </mxGeometry>
        </mxCell>
        <mxCell id="95yOMGn-9sYuLkJ2l636-36" value="effectPrefab, &#xa;PlayerBullet()&#xa;Explosion()" style="text;align=center;verticalAlign=middle;spacingLeft=4;spacingRight=4;overflow=hidden;rotatable=0;points=[[0,0.5],[1,0.5]];portConstraint=eastwest;" vertex="1" parent="95yOMGn-9sYuLkJ2l636-34">
          <mxGeometry y="26" width="150" height="84" as="geometry" />
        </mxCell>
        <mxCell id="95yOMGn-9sYuLkJ2l636-42" style="edgeStyle=orthogonalEdgeStyle;rounded=0;orthogonalLoop=1;jettySize=auto;html=1;entryX=0.007;entryY=0.662;entryDx=0;entryDy=0;entryPerimeter=0;" edge="1" parent="WIyWlLk6GJQsqaUBKTNV-1" target="95yOMGn-9sYuLkJ2l636-31">
          <mxGeometry relative="1" as="geometry">
            <mxPoint x="724" y="464.5" as="sourcePoint" />
            <mxPoint x="676" y="656.5" as="targetPoint" />
            <Array as="points">
              <mxPoint x="724" y="657" />
              <mxPoint x="771" y="657" />
            </Array>
          </mxGeometry>
        </mxCell>
        <mxCell id="95yOMGn-9sYuLkJ2l636-94" value="" style="edgeStyle=orthogonalEdgeStyle;rounded=0;orthogonalLoop=1;jettySize=auto;html=1;" edge="1" parent="WIyWlLk6GJQsqaUBKTNV-1" source="95yOMGn-9sYuLkJ2l636-44" target="95yOMGn-9sYuLkJ2l636-92">
          <mxGeometry relative="1" as="geometry" />
        </mxCell>
        <mxCell id="95yOMGn-9sYuLkJ2l636-44" value="EnemyHit" style="swimlane;fontStyle=2;align=center;verticalAlign=top;childLayout=stackLayout;horizontal=1;startSize=26;horizontalStack=0;resizeParent=1;resizeLast=0;collapsible=1;marginBottom=0;rounded=0;shadow=0;strokeWidth=1;" vertex="1" parent="WIyWlLk6GJQsqaUBKTNV-1">
          <mxGeometry x="490" y="810" width="150" height="110" as="geometry">
            <mxRectangle x="230" y="140" width="160" height="26" as="alternateBounds" />
          </mxGeometry>
        </mxCell>
        <mxCell id="95yOMGn-9sYuLkJ2l636-45" value="TakeDamage()" style="text;align=center;verticalAlign=middle;spacingLeft=4;spacingRight=4;overflow=hidden;rotatable=0;points=[[0,0.5],[1,0.5]];portConstraint=eastwest;" vertex="1" parent="95yOMGn-9sYuLkJ2l636-44">
          <mxGeometry y="26" width="150" height="84" as="geometry" />
        </mxCell>
        <mxCell id="95yOMGn-9sYuLkJ2l636-46" style="edgeStyle=orthogonalEdgeStyle;rounded=0;orthogonalLoop=1;jettySize=auto;html=1;entryX=0.5;entryY=0;entryDx=0;entryDy=0;" edge="1" parent="WIyWlLk6GJQsqaUBKTNV-1" target="95yOMGn-9sYuLkJ2l636-47">
          <mxGeometry relative="1" as="geometry">
            <mxPoint x="839.4100000000001" y="820" as="targetPoint" />
            <mxPoint x="839.4100000000001" y="720" as="sourcePoint" />
          </mxGeometry>
        </mxCell>
        <mxCell id="95yOMGn-9sYuLkJ2l636-47" value="PlayerHit" style="swimlane;fontStyle=2;align=center;verticalAlign=top;childLayout=stackLayout;horizontal=1;startSize=26;horizontalStack=0;resizeParent=1;resizeLast=0;collapsible=1;marginBottom=0;rounded=0;shadow=0;strokeWidth=1;" vertex="1" parent="WIyWlLk6GJQsqaUBKTNV-1">
          <mxGeometry x="760" y="800" width="150" height="110" as="geometry">
            <mxRectangle x="230" y="140" width="160" height="26" as="alternateBounds" />
          </mxGeometry>
        </mxCell>
        <mxCell id="95yOMGn-9sYuLkJ2l636-48" value="Action DamageAction&#xa;Game&#xa;TakeDamage()&#xa;ChangeColor()" style="text;align=center;verticalAlign=middle;spacingLeft=4;spacingRight=4;overflow=hidden;rotatable=0;points=[[0,0.5],[1,0.5]];portConstraint=eastwest;" vertex="1" parent="95yOMGn-9sYuLkJ2l636-47">
          <mxGeometry y="26" width="150" height="84" as="geometry" />
        </mxCell>
        <mxCell id="95yOMGn-9sYuLkJ2l636-49" value="HpView" style="swimlane;fontStyle=2;align=center;verticalAlign=top;childLayout=stackLayout;horizontal=1;startSize=26;horizontalStack=0;resizeParent=1;resizeLast=0;collapsible=1;marginBottom=0;rounded=0;shadow=0;strokeWidth=1;" vertex="1" parent="WIyWlLk6GJQsqaUBKTNV-1">
          <mxGeometry x="765" y="990" width="150" height="110" as="geometry">
            <mxRectangle x="230" y="140" width="160" height="26" as="alternateBounds" />
          </mxGeometry>
        </mxCell>
        <mxCell id="95yOMGn-9sYuLkJ2l636-50" value="Queue images&#xa;GetHitShow()" style="text;align=center;verticalAlign=middle;spacingLeft=4;spacingRight=4;overflow=hidden;rotatable=0;points=[[0,0.5],[1,0.5]];portConstraint=eastwest;" vertex="1" parent="95yOMGn-9sYuLkJ2l636-49">
          <mxGeometry y="26" width="150" height="84" as="geometry" />
        </mxCell>
        <mxCell id="95yOMGn-9sYuLkJ2l636-51" style="edgeStyle=orthogonalEdgeStyle;rounded=0;orthogonalLoop=1;jettySize=auto;html=1;entryX=0.5;entryY=0;entryDx=0;entryDy=0;" edge="1" parent="WIyWlLk6GJQsqaUBKTNV-1" target="95yOMGn-9sYuLkJ2l636-49">
          <mxGeometry relative="1" as="geometry">
            <mxPoint x="839" y="980" as="targetPoint" />
            <mxPoint x="839.4100000000001" y="910" as="sourcePoint" />
          </mxGeometry>
        </mxCell>
        <mxCell id="95yOMGn-9sYuLkJ2l636-52" value="Enemy: M" style="swimlane;fontStyle=2;align=center;verticalAlign=top;childLayout=stackLayout;horizontal=1;startSize=26;horizontalStack=0;resizeParent=1;resizeLast=0;collapsible=1;marginBottom=0;rounded=0;shadow=0;strokeWidth=1;" vertex="1" parent="WIyWlLk6GJQsqaUBKTNV-1">
          <mxGeometry x="80" y="960" width="150" height="110" as="geometry">
            <mxRectangle x="230" y="140" width="160" height="26" as="alternateBounds" />
          </mxGeometry>
        </mxCell>
        <mxCell id="95yOMGn-9sYuLkJ2l636-53" value="Hp, BulletPrefab, &#xa;ScorePoints" style="text;align=center;verticalAlign=middle;spacingLeft=4;spacingRight=4;overflow=hidden;rotatable=0;points=[[0,0.5],[1,0.5]];portConstraint=eastwest;" vertex="1" parent="95yOMGn-9sYuLkJ2l636-52">
          <mxGeometry y="26" width="150" height="84" as="geometry" />
        </mxCell>
        <mxCell id="95yOMGn-9sYuLkJ2l636-54" style="edgeStyle=orthogonalEdgeStyle;rounded=0;orthogonalLoop=1;jettySize=auto;html=1;entryX=0.543;entryY=0.009;entryDx=0;entryDy=0;entryPerimeter=0;" edge="1" parent="WIyWlLk6GJQsqaUBKTNV-1" source="95yOMGn-9sYuLkJ2l636-45" target="95yOMGn-9sYuLkJ2l636-52">
          <mxGeometry relative="1" as="geometry" />
        </mxCell>
        <mxCell id="95yOMGn-9sYuLkJ2l636-58" style="edgeStyle=orthogonalEdgeStyle;rounded=0;orthogonalLoop=1;jettySize=auto;html=1;" edge="1" parent="WIyWlLk6GJQsqaUBKTNV-1" source="95yOMGn-9sYuLkJ2l636-56" target="95yOMGn-9sYuLkJ2l636-27">
          <mxGeometry relative="1" as="geometry">
            <mxPoint x="1150" y="314.5" as="targetPoint" />
          </mxGeometry>
        </mxCell>
        <mxCell id="95yOMGn-9sYuLkJ2l636-72" style="edgeStyle=orthogonalEdgeStyle;rounded=0;orthogonalLoop=1;jettySize=auto;html=1;entryX=0.5;entryY=0;entryDx=0;entryDy=0;" edge="1" parent="WIyWlLk6GJQsqaUBKTNV-1" source="95yOMGn-9sYuLkJ2l636-56" target="95yOMGn-9sYuLkJ2l636-63">
          <mxGeometry relative="1" as="geometry" />
        </mxCell>
        <mxCell id="95yOMGn-9sYuLkJ2l636-56" value="EnemyArmyController: M" style="swimlane;fontStyle=0;align=center;verticalAlign=top;childLayout=stackLayout;horizontal=1;startSize=26;horizontalStack=0;resizeParent=1;resizeLast=0;collapsible=1;marginBottom=0;rounded=0;shadow=0;strokeWidth=1;" vertex="1" parent="WIyWlLk6GJQsqaUBKTNV-1">
          <mxGeometry x="1170" y="204.5" width="140" height="220" as="geometry">
            <mxRectangle x="550" y="140" width="160" height="26" as="alternateBounds" />
          </mxGeometry>
        </mxCell>
        <mxCell id="95yOMGn-9sYuLkJ2l636-57" value="armyGenerator settings;&#xa;ArmyMovement settings;&#xa;Game&#xa;&#xa;&#xa;Ienumerator Generator()&#xa;Ienumerator ArmyMove()&#xa;Ienumerator ArmyShoot()&#xa;&#xa;EmptyArmyChecker()" style="text;align=center;verticalAlign=top;spacingLeft=4;spacingRight=4;overflow=hidden;rotatable=0;points=[[0,0.5],[1,0.5]];portConstraint=eastwest;" vertex="1" parent="95yOMGn-9sYuLkJ2l636-56">
          <mxGeometry y="26" width="140" height="194" as="geometry" />
        </mxCell>
        <mxCell id="95yOMGn-9sYuLkJ2l636-59" style="edgeStyle=orthogonalEdgeStyle;rounded=0;orthogonalLoop=1;jettySize=auto;html=1;" edge="1" parent="WIyWlLk6GJQsqaUBKTNV-1" source="95yOMGn-9sYuLkJ2l636-57" target="95yOMGn-9sYuLkJ2l636-14">
          <mxGeometry relative="1" as="geometry" />
        </mxCell>
        <mxCell id="95yOMGn-9sYuLkJ2l636-60" value="EnemyArmyGenerator" style="swimlane;fontStyle=0;align=center;verticalAlign=top;childLayout=stackLayout;horizontal=1;startSize=26;horizontalStack=0;resizeParent=1;resizeLast=0;collapsible=1;marginBottom=0;rounded=0;shadow=0;strokeWidth=1;" vertex="1" parent="WIyWlLk6GJQsqaUBKTNV-1">
          <mxGeometry x="1370" y="220" width="160" height="90" as="geometry">
            <mxRectangle x="550" y="140" width="160" height="26" as="alternateBounds" />
          </mxGeometry>
        </mxCell>
        <mxCell id="95yOMGn-9sYuLkJ2l636-61" value="ArmyGenerator()&#xa;EnemyInit()" style="text;align=center;verticalAlign=top;spacingLeft=4;spacingRight=4;overflow=hidden;rotatable=0;points=[[0,0.5],[1,0.5]];portConstraint=eastwest;" vertex="1" parent="95yOMGn-9sYuLkJ2l636-60">
          <mxGeometry y="26" width="160" height="54" as="geometry" />
        </mxCell>
        <mxCell id="95yOMGn-9sYuLkJ2l636-62" style="edgeStyle=orthogonalEdgeStyle;rounded=0;orthogonalLoop=1;jettySize=auto;html=1;entryX=0.011;entryY=0.725;entryDx=0;entryDy=0;entryPerimeter=0;" edge="1" parent="WIyWlLk6GJQsqaUBKTNV-1" source="95yOMGn-9sYuLkJ2l636-57" target="95yOMGn-9sYuLkJ2l636-61">
          <mxGeometry relative="1" as="geometry" />
        </mxCell>
        <mxCell id="95yOMGn-9sYuLkJ2l636-81" value="" style="edgeStyle=orthogonalEdgeStyle;rounded=0;orthogonalLoop=1;jettySize=auto;html=1;" edge="1" parent="WIyWlLk6GJQsqaUBKTNV-1" source="95yOMGn-9sYuLkJ2l636-63" target="95yOMGn-9sYuLkJ2l636-79">
          <mxGeometry relative="1" as="geometry" />
        </mxCell>
        <mxCell id="95yOMGn-9sYuLkJ2l636-87" style="edgeStyle=orthogonalEdgeStyle;rounded=0;orthogonalLoop=1;jettySize=auto;html=1;entryX=0.081;entryY=0.047;entryDx=0;entryDy=0;entryPerimeter=0;" edge="1" parent="WIyWlLk6GJQsqaUBKTNV-1" source="95yOMGn-9sYuLkJ2l636-63" target="95yOMGn-9sYuLkJ2l636-82">
          <mxGeometry relative="1" as="geometry" />
        </mxCell>
        <mxCell id="95yOMGn-9sYuLkJ2l636-63" value="Game" style="swimlane;fontStyle=0;align=center;verticalAlign=top;childLayout=stackLayout;horizontal=1;startSize=26;horizontalStack=0;resizeParent=1;resizeLast=0;collapsible=1;marginBottom=0;rounded=0;shadow=0;strokeWidth=1;" vertex="1" parent="WIyWlLk6GJQsqaUBKTNV-1">
          <mxGeometry x="1160" y="500" width="160" height="120" as="geometry">
            <mxRectangle x="550" y="140" width="160" height="26" as="alternateBounds" />
          </mxGeometry>
        </mxCell>
        <mxCell id="95yOMGn-9sYuLkJ2l636-64" value="Action WinPanel&#xa;Action LosePane;&#xa;&#xa;Lose()&#xa;Win()&#xa;Restart()" style="text;align=center;verticalAlign=top;spacingLeft=4;spacingRight=4;overflow=hidden;rotatable=0;points=[[0,0.5],[1,0.5]];portConstraint=eastwest;" vertex="1" parent="95yOMGn-9sYuLkJ2l636-63">
          <mxGeometry y="26" width="160" height="94" as="geometry" />
        </mxCell>
        <mxCell id="95yOMGn-9sYuLkJ2l636-73" value="Deadline: M" style="swimlane;fontStyle=0;align=center;verticalAlign=top;childLayout=stackLayout;horizontal=1;startSize=26;horizontalStack=0;resizeParent=1;resizeLast=0;collapsible=1;marginBottom=0;rounded=0;shadow=0;strokeWidth=1;" vertex="1" parent="WIyWlLk6GJQsqaUBKTNV-1">
          <mxGeometry x="1390" y="445" width="160" height="90" as="geometry">
            <mxRectangle x="550" y="140" width="160" height="26" as="alternateBounds" />
          </mxGeometry>
        </mxCell>
        <mxCell id="95yOMGn-9sYuLkJ2l636-74" value="&#xa;OnTriggerEnter()" style="text;align=center;verticalAlign=top;spacingLeft=4;spacingRight=4;overflow=hidden;rotatable=0;points=[[0,0.5],[1,0.5]];portConstraint=eastwest;" vertex="1" parent="95yOMGn-9sYuLkJ2l636-73">
          <mxGeometry y="26" width="160" height="64" as="geometry" />
        </mxCell>
        <mxCell id="95yOMGn-9sYuLkJ2l636-75" style="edgeStyle=orthogonalEdgeStyle;rounded=0;orthogonalLoop=1;jettySize=auto;html=1;" edge="1" parent="WIyWlLk6GJQsqaUBKTNV-1" source="95yOMGn-9sYuLkJ2l636-74" target="95yOMGn-9sYuLkJ2l636-64">
          <mxGeometry relative="1" as="geometry" />
        </mxCell>
        <mxCell id="95yOMGn-9sYuLkJ2l636-76" value="Game" style="swimlane;fontStyle=2;align=center;verticalAlign=top;childLayout=stackLayout;horizontal=1;startSize=26;horizontalStack=0;resizeParent=1;resizeLast=0;collapsible=1;marginBottom=0;rounded=0;shadow=0;strokeWidth=1;" vertex="1" parent="WIyWlLk6GJQsqaUBKTNV-1">
          <mxGeometry x="90" y="50" width="160" height="140" as="geometry">
            <mxRectangle x="230" y="140" width="160" height="26" as="alternateBounds" />
          </mxGeometry>
        </mxCell>
        <mxCell id="95yOMGn-9sYuLkJ2l636-77" value="Action WinAction&#xa;Action LoseAction&#xa;&#xa;Lose()&#xa;Win()&#xa;Restart()" style="text;align=center;verticalAlign=top;spacingLeft=4;spacingRight=4;overflow=hidden;rotatable=0;points=[[0,0.5],[1,0.5]];portConstraint=eastwest;" vertex="1" parent="95yOMGn-9sYuLkJ2l636-76">
          <mxGeometry y="26" width="160" height="114" as="geometry" />
        </mxCell>
        <mxCell id="95yOMGn-9sYuLkJ2l636-79" value="WinPanel: M" style="swimlane;fontStyle=0;align=center;verticalAlign=top;childLayout=stackLayout;horizontal=1;startSize=26;horizontalStack=0;resizeParent=1;resizeLast=0;collapsible=1;marginBottom=0;rounded=0;shadow=0;strokeWidth=1;" vertex="1" parent="WIyWlLk6GJQsqaUBKTNV-1">
          <mxGeometry x="1110" y="700" width="160" height="60" as="geometry">
            <mxRectangle x="550" y="140" width="160" height="26" as="alternateBounds" />
          </mxGeometry>
        </mxCell>
        <mxCell id="95yOMGn-9sYuLkJ2l636-80" value="ShowPanel()" style="text;align=center;verticalAlign=top;spacingLeft=4;spacingRight=4;overflow=hidden;rotatable=0;points=[[0,0.5],[1,0.5]];portConstraint=eastwest;" vertex="1" parent="95yOMGn-9sYuLkJ2l636-79">
          <mxGeometry y="26" width="160" height="34" as="geometry" />
        </mxCell>
        <mxCell id="95yOMGn-9sYuLkJ2l636-90" value="" style="edgeStyle=orthogonalEdgeStyle;rounded=0;orthogonalLoop=1;jettySize=auto;html=1;" edge="1" parent="WIyWlLk6GJQsqaUBKTNV-1" source="95yOMGn-9sYuLkJ2l636-82" target="95yOMGn-9sYuLkJ2l636-88">
          <mxGeometry relative="1" as="geometry" />
        </mxCell>
        <mxCell id="95yOMGn-9sYuLkJ2l636-82" value="LosePanel: M" style="swimlane;fontStyle=0;align=center;verticalAlign=top;childLayout=stackLayout;horizontal=1;startSize=26;horizontalStack=0;resizeParent=1;resizeLast=0;collapsible=1;marginBottom=0;rounded=0;shadow=0;strokeWidth=1;" vertex="1" parent="WIyWlLk6GJQsqaUBKTNV-1">
          <mxGeometry x="1300" y="700" width="160" height="60" as="geometry">
            <mxRectangle x="550" y="140" width="160" height="26" as="alternateBounds" />
          </mxGeometry>
        </mxCell>
        <mxCell id="95yOMGn-9sYuLkJ2l636-83" value="ShowPanel()" style="text;align=center;verticalAlign=top;spacingLeft=4;spacingRight=4;overflow=hidden;rotatable=0;points=[[0,0.5],[1,0.5]];portConstraint=eastwest;" vertex="1" parent="95yOMGn-9sYuLkJ2l636-82">
          <mxGeometry y="26" width="160" height="34" as="geometry" />
        </mxCell>
        <mxCell id="95yOMGn-9sYuLkJ2l636-91" style="edgeStyle=orthogonalEdgeStyle;rounded=0;orthogonalLoop=1;jettySize=auto;html=1;entryX=1.022;entryY=0.805;entryDx=0;entryDy=0;entryPerimeter=0;" edge="1" parent="WIyWlLk6GJQsqaUBKTNV-1" source="95yOMGn-9sYuLkJ2l636-88" target="95yOMGn-9sYuLkJ2l636-64">
          <mxGeometry relative="1" as="geometry" />
        </mxCell>
        <mxCell id="95yOMGn-9sYuLkJ2l636-88" value="RestartGame: M" style="swimlane;fontStyle=0;align=center;verticalAlign=top;childLayout=stackLayout;horizontal=1;startSize=26;horizontalStack=0;resizeParent=1;resizeLast=0;collapsible=1;marginBottom=0;rounded=0;shadow=0;strokeWidth=1;" vertex="1" parent="WIyWlLk6GJQsqaUBKTNV-1">
          <mxGeometry x="1540" y="700" width="160" height="60" as="geometry">
            <mxRectangle x="550" y="140" width="160" height="26" as="alternateBounds" />
          </mxGeometry>
        </mxCell>
        <mxCell id="95yOMGn-9sYuLkJ2l636-89" value="ButtonRestart()" style="text;align=center;verticalAlign=top;spacingLeft=4;spacingRight=4;overflow=hidden;rotatable=0;points=[[0,0.5],[1,0.5]];portConstraint=eastwest;" vertex="1" parent="95yOMGn-9sYuLkJ2l636-88">
          <mxGeometry y="26" width="160" height="34" as="geometry" />
        </mxCell>
        <mxCell id="95yOMGn-9sYuLkJ2l636-97" value="" style="edgeStyle=orthogonalEdgeStyle;rounded=0;orthogonalLoop=1;jettySize=auto;html=1;" edge="1" parent="WIyWlLk6GJQsqaUBKTNV-1" source="95yOMGn-9sYuLkJ2l636-92" target="95yOMGn-9sYuLkJ2l636-95">
          <mxGeometry relative="1" as="geometry" />
        </mxCell>
        <mxCell id="95yOMGn-9sYuLkJ2l636-92" value="Score" style="swimlane;fontStyle=2;align=center;verticalAlign=top;childLayout=stackLayout;horizontal=1;startSize=26;horizontalStack=0;resizeParent=1;resizeLast=0;collapsible=1;marginBottom=0;rounded=0;shadow=0;strokeWidth=1;" vertex="1" parent="WIyWlLk6GJQsqaUBKTNV-1">
          <mxGeometry x="360" y="990" width="150" height="70" as="geometry">
            <mxRectangle x="230" y="140" width="160" height="26" as="alternateBounds" />
          </mxGeometry>
        </mxCell>
        <mxCell id="95yOMGn-9sYuLkJ2l636-93" value="Action View&#xa;ScoreCount&#xa;IncreaseScore()" style="text;align=center;verticalAlign=middle;spacingLeft=4;spacingRight=4;overflow=hidden;rotatable=0;points=[[0,0.5],[1,0.5]];portConstraint=eastwest;" vertex="1" parent="95yOMGn-9sYuLkJ2l636-92">
          <mxGeometry y="26" width="150" height="44" as="geometry" />
        </mxCell>
        <mxCell id="95yOMGn-9sYuLkJ2l636-95" value="ScoreView:M" style="swimlane;fontStyle=2;align=center;verticalAlign=top;childLayout=stackLayout;horizontal=1;startSize=26;horizontalStack=0;resizeParent=1;resizeLast=0;collapsible=1;marginBottom=0;rounded=0;shadow=0;strokeWidth=1;" vertex="1" parent="WIyWlLk6GJQsqaUBKTNV-1">
          <mxGeometry x="590" y="990" width="150" height="70" as="geometry">
            <mxRectangle x="230" y="140" width="160" height="26" as="alternateBounds" />
          </mxGeometry>
        </mxCell>
        <mxCell id="95yOMGn-9sYuLkJ2l636-96" value="ScoreRefresh()" style="text;align=center;verticalAlign=middle;spacingLeft=4;spacingRight=4;overflow=hidden;rotatable=0;points=[[0,0.5],[1,0.5]];portConstraint=eastwest;" vertex="1" parent="95yOMGn-9sYuLkJ2l636-95">
          <mxGeometry y="26" width="150" height="44" as="geometry" />
        </mxCell>
      </root>
    </mxGraphModel>
  </diagram>
</mxfile>
